<svg class="svg-icon" style="width: 1em; height: 1em;vertical-align: middle;fill: currentColor;overflow: hidden;" viewBox="0 0 1024 1024" version="1.1" xmlns="http://www.w3.org/2000/svg"><path d="M271.1 670.1c-0.5 1-0.9 1.9-1.3 2.8-2 5-3.2 10.2-3.7 15.3-1.6 17 4.5 34.1 17.6 47.1 17 17 40.9 22.4 62.4 14 0.9-0.4 1.9-0.8 2.8-1.3l118-59.9 123.8-62.9c5.2-2.2 9.9-5.2 14.1-8.8 0.9-0.8 1.8-1.6 2.7-2.5l110-110 43.2-43.2L937 284.4c26.1-26.1 25.1-69.6-2.3-97.1L832.3 84.6l-0.1-0.1c-13.3-13.3-30.7-20.8-49-21.3-7.8-0.2-15.4 0.9-22.4 3.2-9.6 3.1-18.4 8.4-25.7 15.7l-17.5 17.5-193.1 193.2-72.2 72.2-46.7 46.7c-4.8 4.8-8.6 10.4-11.3 16.7l-13.3 26-36.8 72.3-45.5 89.3-27.6 54.1z m458.3-520.6l31.4-31.4 5.1-5.1c4.8-4.8 11.3-7.4 18.3-7.2 7 0.2 13.6 3.1 18.7 8.1l102.5 102.8c10.4 10.5 10.8 27.1 0.9 37l-36.4 36.4c-0.8 0.8-2.1 0.8-2.9 0L760.8 183.8l-31.4-31.4c-0.9-0.8-0.9-2.1 0-2.9zM466.8 412l47-47 72.3-72.3 109.5-109.5c0.8-0.8 2.1-0.8 2.9 0l19 19 43.2 43.2 75.5 75.5c0.8 0.8 0.8 2.1 0 2.9l-75.5 75.5-43.2 43.2-110.1 110.1c-0.8 0.8-2.1 0.8-2.9 0l-26-26-72.3-72.3-39.4-39.4c-0.8-0.8-0.8-2.1 0-2.9zM309.3 690.6c0-0.1 0.1-0.2 0.1-0.3l1.1-2.1 36.8-72.3 45.5-89.3 36.8-72.3 2.8-5.5c0.3-0.6 0.6-1.3 0.9-1.9 0.6-1.3 2.3-1.7 3.3-0.6l8.1 8.1 72.3 72.3 56.1 56.1c1 1 0.7 2.8-0.6 3.3 0 0-0.1 0-0.1 0.1-0.7 0.3-1.3 0.6-1.9 0.9L513.6 616l-142.3 72.3-42.4 21.6c-0.1 0-0.2 0.1-0.3 0.1-7.8 2.7-13.4-1.7-15.4-3.8-2.2-2.2-6.7-7.8-3.9-15.6z"  /><path d="M883.3 445.7h-39.6c-8.7 0-15.8 7.1-15.8 15.8 0 8.7 7.1 15.8 15.8 15.8h39.6c15.5 0 28 9.1 28 20.3V909c0 11.2-12.6 20.3-28 20.3H131.6c-15.5 0-28-9.1-28-20.3V497.6c0-11.2 12.6-20.3 28-20.3H300c8.7 0 15.8-7.1 15.8-15.8 0-8.7-7.1-15.8-15.8-15.8H131.6c-39.6 0-71.7 23.3-71.7 51.9V909c0 28.6 32.2 51.9 71.7 51.9h751.7c39.6 0 71.7-23.3 71.7-51.9V497.6c0-28.6-32.2-51.9-71.7-51.9z"  /></svg>