<svg xmlns="http://www.w3.org/2000/svg" xmlns:xlink="http://www.w3.org/1999/xlink" width="466" height="456" viewBox="0 0 466 456"><defs><clipPath id="b"><rect width="466" height="456"/></clipPath></defs><g id="a" clip-path="url(#b)"><rect width="466" height="456" fill="#fff"/><g transform="translate(18.9 9)"><path d="M181.78,455.983a14.767,14.767,0,0,0,20.884,20.884l55.719-55.719a14.883,14.883,0,0,0,0-21.007l-55.719-55.678a14.767,14.767,0,0,0-20.884,20.884l30.485,30.485-197.395.041a14.791,14.791,0,0,0,0,29.583l197.395.041L181.78,455.983Z" transform="translate(0 -200.572)" fill="#1e8400"/><path d="M460.784,128.342A209.909,209.909,0,0,0,100.049,82.962a14.755,14.755,0,1,0,23.469,17.889,182,182,0,0,1,62.242-51.9A180.31,180.31,0,0,1,394.89,82.388a180.612,180.612,0,0,1-57.36,294.02,180.916,180.916,0,0,1-151.852-5.252,182.38,182.38,0,0,1-62.242-51.9,14.755,14.755,0,0,0-23.469,17.889,211.857,211.857,0,0,0,72.418,60.4A209.97,209.97,0,0,0,477.319,210.073,207.7,207.7,0,0,0,460.784,128.342Z" transform="translate(-57.114)" fill="#1e8400"/></g></g></svg>