<svg class="svg-icon" style="width: 1em; height: 1em;vertical-align: middle;fill: currentColor;overflow: hidden;" viewBox="0 0 1024 1024" version="1.1" xmlns="http://www.w3.org/2000/svg"><path d="M839.37 873.83H184.63c-66.51 0-120.61-54.1-120.61-120.61v-401.3c0-9.52 7.71-17.23 17.23-17.23s17.23 7.71 17.23 17.23v401.3c0 47.5 38.65 86.15 86.15 86.15h654.73c47.5 0 86.15-38.65 86.15-86.15v-401.3c0-9.52 7.71-17.23 17.23-17.23s17.23 7.71 17.23 17.23v401.3c0.01 66.51-54.1 120.61-120.6 120.61zM512.01 554.68c-14.29 0-28.32-4.58-39.5-12.88L87.9 255.7c-21.39-15.91-29.42-42.72-20.01-66.72 9.1-23.21 33.02-38.81 59.51-38.81h769.2c26.5 0 50.41 15.6 59.51 38.82 9.41 23.99 1.38 50.81-20.01 66.72L551.5 541.8c-11.17 8.3-25.2 12.88-39.49 12.88z m-384.6-370.05c-12.43 0-23.46 6.81-27.43 16.94-3.73 9.49-0.4 19.89 8.49 26.49l384.59 286.09c10.55 7.82 27.35 7.82 37.88 0l384.6-286.09c8.87-6.6 12.2-17 8.48-26.49-3.97-10.14-14.99-16.94-27.43-16.94H127.41z m798.41 57.25h0.17-0.17z"  /></svg>