<svg class="svg-icon" style="width: 1em; height: 1em;vertical-align: middle;fill: currentColor;overflow: hidden;" viewBox="0 0 1024 1024" version="1.1" xmlns="http://www.w3.org/2000/svg"><path d="M896 416 640 416C622.32 416 608 401.68 608 384 608 366.32 622.32 352 640 352L825.344 352C767.056 238.096 648.736 160 512 160 317.6 160 160 317.6 160 512 160 706.4 317.6 864 512 864 684.512 864 827.872 739.84 858 576.048 858 576.032 858 576.016 858 576 858 558.32 872.32 544 890 544 907.68 544 922 558.32 922 576 922 579.488 921.296 582.784 920.272 585.936L921.392 586.208C886.416 780.544 716.432 928 512 928 282.24 928 96 741.744 96 512 96 282.256 282.24 96 512 96 660.256 96 790.32 173.6 864 290.336L864 128C864 110.32 878.32 96 896 96 913.68 96 928 110.32 928 128L928 384C928 401.68 913.68 416 896 416Z"  /></svg>