<svg xmlns="http://www.w3.org/2000/svg" xmlns:xlink="http://www.w3.org/1999/xlink" width="327" height="351" viewBox="0 0 327 351"><defs><clipPath id="b"><rect width="327" height="351"/></clipPath></defs><g id="a" clip-path="url(#b)"><rect width="327" height="351" fill="#fff"/><g transform="translate(-529.288 -68.926)"><path d="M240.151,103C159.967,103,94.73,168.241,94.73,248.432a148.866,148.866,0,0,0,2.284,24.885c0,.049.088.028.106.07a4.786,4.786,0,0,0,4.582,3.545,4.849,4.849,0,0,0,4.846-4.849,4.187,4.187,0,0,0-.1-.465l.085-.039A135.774,135.774,0,1,1,122.9,316.573c0-.025-.032-.039-.039-.063-.063-.106-.134-.208-.194-.314a4.8,4.8,0,0,0-4.229-2.6,4.849,4.849,0,0,0-4.846,4.846,4.729,4.729,0,0,0,.966,2.759l-.081.049a145.349,145.349,0,0,0,125.678,72.6c80.18,0,145.417-65.23,145.417-145.421S320.338,103,240.151,103Z" transform="translate(452.635 -4)" fill="#1e8400"/><path d="M392.859,552.615a52.687,52.687,0,0,1,52.621,52.621h9.7a62.318,62.318,0,0,0-124.635,0h9.7A52.674,52.674,0,0,1,392.859,552.615Z" transform="translate(299.93 -288.881)" fill="#1e8400"/><path d="M335.386,710.836m-4.846,0a4.846,4.846,0,1,0,4.846-4.846A4.846,4.846,0,0,0,330.54,710.836Z" transform="translate(299.93 -394.481)"/><path d="M661.526,710.836m-4.846,0a4.846,4.846,0,1,0,4.846-4.846A4.846,4.846,0,0,0,656.68,710.836Z" transform="translate(88.73 -394.481)"/><path d="M419.1,393.891a48.035,48.035,0,1,1,48.035-48.035A48.087,48.087,0,0,1,419.1,393.891Zm0-86.376a38.344,38.344,0,1,0,38.344,38.343A38.344,38.344,0,0,0,419.1,307.515Z" transform="translate(273.684 -130.161)" fill="#1e8400"/></g></g></svg>