<?xml version="1.0" standalone="no"?>
<svg xmlns:xlink="http://www.w3.org/1999/xlink" id="wave" style="transform:rotate(0deg); transition: 0.3s" viewBox="0 0 1440 490" version="1.1" xmlns="http://www.w3.org/2000/svg"><defs><linearGradient id="sw-gradient-0" x1="0" x2="0" y1="1" y2="0"><stop stop-color="rgba(45.636, 202.954, 43.04, 0.5)" offset="0%"/><stop stop-color="rgba(1.991, 225.722, 66.568, 0.5)" offset="100%"/></linearGradient></defs><path style="transform:translate(0, 0px); opacity:1" fill="url(#sw-gradient-0)" d="M0,49L80,40.8C160,33,320,16,480,40.8C640,65,800,131,960,147C1120,163,1280,131,1440,155.2C1600,180,1760,261,1920,285.8C2080,310,2240,278,2400,228.7C2560,180,2720,114,2880,122.5C3040,131,3200,212,3360,253.2C3520,294,3680,294,3840,285.8C4000,278,4160,261,4320,261.3C4480,261,4640,278,4800,236.8C4960,196,5120,98,5280,122.5C5440,147,5600,294,5760,326.7C5920,359,6080,278,6240,228.7C6400,180,6560,163,6720,204.2C6880,245,7040,343,7200,359.3C7360,376,7520,310,7680,261.3C7840,212,8000,180,8160,155.2C8320,131,8480,114,8640,130.7C8800,147,8960,196,9120,212.3C9280,229,9440,212,9600,187.8C9760,163,9920,131,10080,171.5C10240,212,10400,327,10560,359.3C10720,392,10880,343,11040,277.7C11200,212,11360,131,11440,89.8L11520,49L11520,490L11440,490C11360,490,11200,490,11040,490C10880,490,10720,490,10560,490C10400,490,10240,490,10080,490C9920,490,9760,490,9600,490C9440,490,9280,490,9120,490C8960,490,8800,490,8640,490C8480,490,8320,490,8160,490C8000,490,7840,490,7680,490C7520,490,7360,490,7200,490C7040,490,6880,490,6720,490C6560,490,6400,490,6240,490C6080,490,5920,490,5760,490C5600,490,5440,490,5280,490C5120,490,4960,490,4800,490C4640,490,4480,490,4320,490C4160,490,4000,490,3840,490C3680,490,3520,490,3360,490C3200,490,3040,490,2880,490C2720,490,2560,490,2400,490C2240,490,2080,490,1920,490C1760,490,1600,490,1440,490C1280,490,1120,490,960,490C800,490,640,490,480,490C320,490,160,490,80,490L0,490Z"/></svg>
